<svg width="263" height="243" viewBox="0 0 263 243" fill="none" xmlns="http://www.w3.org/2000/svg">
<path d="M62 95C67.7573 86.2027 100.297 61.1374 133.36 60.596C166.424 60.0547 182.832 77.8592 186.533 89.8145C186.739 79.6638 180.241 62.3555 155.567 50.4454C162.147 41.4225 200.845 32.2104 227 36C217.272 29.4585 174.044 15.121 137.678 41.6481C137.884 35.7833 140.155 6.96475 150.518 2.09242C145.172 0.51343 132.506 -1.69716 124.61 2.09242C124.199 7.05498 124.971 34.6103 128.425 41.6481C114.854 31.4974 62.1157 21.1384 33 45.5C43.281 40.5374 88.0828 31.4974 114.238 50.4454C107.863 52.2499 75.3241 69.5556 62 95Z" fill="white"/>
<path d="M56.9365 103.623C52.3367 100.922 50.6666 95.0865 53.1411 90.361C60.8177 75.7014 73.6609 63.93 84.8305 55.7797C87.1239 54.1063 89.3812 52.5605 91.555 51.1495C84.1521 49.3415 76.0413 48.7394 67.9908 49.001C66.1742 49.06 64.3969 49.1615 62.6702 49.2972C23.0255 60.3563 0 94.0258 0 139C0 144.534 0.392731 149.869 1.15521 155H261.766C262.579 149.869 263 144.534 263 139C263 93.031 238.945 56.4669 196.34 46.3857C192.841 46.8685 189.379 47.4784 186.043 48.195C182.156 49.03 178.56 49.9848 175.386 51.0001C191.157 63.4514 196.763 78.5905 196.531 90.017C196.432 94.9229 192.788 99.032 187.929 99.7166C183.07 100.401 178.432 97.4593 176.981 92.7718C174.752 85.5727 162.702 70.1169 133.524 70.5947C119.298 70.8276 104.583 76.4121 92.4078 83.381C86.3943 86.8229 81.2162 90.4802 77.277 93.7162C73.1254 97.1266 70.9603 99.57 70.3674 100.476C67.4464 104.939 61.5363 106.324 56.9365 103.623Z" fill="white"/>
<path d="M129.5 243C66.9328 243 16.6874 215.421 3.43204 166H12V182C12 183.105 12.8954 184 14 184C15.1046 184 16 183.105 16 182V166H23V172.5C23 173.328 23.6716 174 24.5 174C25.3284 174 26 173.328 26 172.5V166H33V172.5C33 173.328 33.6716 174 34.5 174C35.3284 174 36 173.328 36 172.5V166H43V172.5C43 173.328 43.6716 174 44.5 174C45.3284 174 46 173.328 46 172.5V166H53V182C53 183.105 53.8954 184 55 184C56.1046 184 57 183.105 57 182V166H64V172.5C64 173.328 64.6716 174 65.5 174C66.3284 174 67 173.328 67 172.5V166H74V172.5C74 173.328 74.6716 174 75.5 174C76.3284 174 77 173.328 77 172.5V166H84V172.5C84 173.328 84.6716 174 85.5 174C86.3284 174 87 173.328 87 172.5V166H94V182C94 183.105 94.8954 184 96 184C97.1046 184 98 183.105 98 182V166H105V172.5C105 173.328 105.672 174 106.5 174C107.328 174 108 173.328 108 172.5V166H115V172.5C115 173.328 115.672 174 116.5 174C117.328 174 118 173.328 118 172.5V166H125V172.5C125 173.328 125.672 174 126.5 174C127.328 174 128 173.328 128 172.5V166H135V182C135 183.105 135.895 184 137 184C138.105 184 139 183.105 139 182V166H146V172.5C146 173.328 146.672 174 147.5 174C148.328 174 149 173.328 149 172.5V166H156V172.5C156 173.328 156.672 174 157.5 174C158.328 174 159 173.328 159 172.5V166H166V172.5C166 173.328 166.672 174 167.5 174C168.328 174 169 173.328 169 172.5V166H176V182C176 183.105 176.895 184 178 184C179.105 184 180 183.105 180 182V166H187V172.5C187 173.328 187.672 174 188.5 174C189.328 174 190 173.328 190 172.5V166H197V172.5C197 173.328 197.672 174 198.5 174C199.328 174 200 173.328 200 172.5V166H207V172.5C207 173.328 207.672 174 208.5 174C209.328 174 210 173.328 210 172.5V166H217V182C217 183.105 217.895 184 219 184C220.105 184 221 183.105 221 182V166H228V172.5C228 173.328 228.672 174 229.5 174C230.328 174 231 173.328 231 172.5V166H238V172.5C238 173.328 238.672 174 239.5 174C240.328 174 241 173.328 241 172.5V166H248V172.5C248 173.328 248.672 174 249.5 174C250.328 174 251 173.328 251 172.5V166H259.34C245.237 215.421 192.067 243 129.5 243Z" fill="white"/>
</svg>
